<?xml version="1.0" encoding="UTF-8" standalone="no"?>
<!-- Created with Inkscape (http://www.inkscape.org/) -->

<svg
   width="100"
   height="50"
   viewBox="0 0 26.458333 13.229167"
   version="1.1"
   id="svg5"
   xmlns="http://www.w3.org/2000/svg"
   xmlns:svg="http://www.w3.org/2000/svg">
  <defs
     id="defs2" />
  <g
     id="layer1">
    <path
       id="rect606"
       style="fill:#d40000;stroke-width:0.0996916"
       d="M 0.0747663,-0.02411939 V 13.205047 H 26.533096 V -0.02411939 Z m 3.82845,0.81438195 H 12.327956 V 3.8218567 h -1.9529 V 2.2608727 H 5.5382163 l -0.35198,3.343792 c 0.96131,-0.564144 2.03238,-0.846218 3.21321,-0.846218 1.49874,0 2.6795697,0.361492 3.5424697,1.084474 0.87048,0.72298 1.30572,1.618496 1.30572,2.686534 0,1.128288 -0.47687,2.0539283 -1.43061,2.7769083 -0.94618,0.717504 -2.2746097,1.076256 -3.9852897,1.076256 -1.58957,0 -2.84609,-0.325894 -3.76956,-0.977666 -0.92346,-0.65178 -1.44197,-1.6020645 -1.5555,-2.8508503 h 2.04373 c 0.12111,0.766796 0.46552,1.3775028 1.03322,1.8321003 0.57528,0.454604 1.33222,0.681904 2.27082,0.681904 0.94617,0 1.7069,-0.235518 2.2821697,-0.70655 0.57528,-0.4710325 0.86291,-1.0762583 0.86291,-1.8156703 0,-0.78323 -0.28007,-1.38024 -0.8402,-1.791024 -0.5601397,-0.416262 -1.2565197,-0.624392 -2.0891597,-0.624392 -1.24894,0 -2.30487,0.457342 -3.16778,1.372022 -0.48444,-0.34506 -1.03323,-0.621656 -1.64634,-0.829786 z m 8.8968797,0.02396 h 5.64298 c 1.65769,0 2.89908,0.0849 3.72414,0.25468604 0.82506,0.1698001 1.51388,0.5559301 2.06644,1.1584141 0.56014,0.597008 0.84021,1.30356 0.84021,2.119652 0,0.651778 -0.18545,1.237832 -0.55635,1.75816 -0.36334,0.51485 -0.8175,0.895512 -1.36249,1.141982 -0.53743,0.246472 -1.14677,0.413524 -1.82801,0.501158 -0.67368,0.08216 -1.69555,0.12324 -3.0656,0.12324 h -1.09 v 2.9412223 h 2.04374 v 1.429534 h -6.41506 v -1.429534 h 1.98696 V 2.2437567 h -1.98696 z m 4.37132,1.42953214 v 4.247518 h 1.36249 c 1.55173,0 2.62658,-0.15884 3.22456,-0.47651 0.59798,-0.323152 0.89697,-0.890036 0.89697,-1.700652 0,-0.51485 -0.15895,-0.942066 -0.47686,-1.28165 -0.31792,-0.339582 -0.71153,-0.555928 -1.18083,-0.64904 -0.4693,-0.09312 -1.25274,-0.13966 -2.35029,-0.13966 z" />
  </g>
</svg>
