<?xml version="1.0" encoding="UTF-8" standalone="no"?>
<!-- Created with Inkscape (http://www.inkscape.org/) -->

<svg
   width="210mm"
   height="210mm"
   viewBox="0 0 210 210"
   version="1.1"
   id="svg5"
   xml:space="preserve"
   xmlns="http://www.w3.org/2000/svg"
   xmlns:svg="http://www.w3.org/2000/svg"><defs
     id="defs2" /><g
     id="layer1"><g
       id="g279"
       transform="matrix(0.26458333,0,0,0.26458333,-34.267106,-28.804935)"><ellipse
         class="st1"
         cx="514.90002"
         cy="787.59998"
         rx="389.70001"
         ry="45.200001"
         id="ellipse2141" /><path
         class="st3"
         d="M 597,792 H 252.1 c -27.8,0 -50.4,-22.6 -50.4,-50.4 v -122 c 0,-14.6 6.4,-28.5 17.6,-38 l 78,-66.5 h 204.2 l 78,66.5 c 11.1,9.5 17.6,23.4 17.6,38 V 792 Z"
         id="path2461" /><path
         class="st4"
         d="M 597,792 H 252.1 c -27.8,0 -50.4,-22.6 -50.4,-50.4 v -122 c 0,-14.6 6.4,-28.5 17.6,-38 l 78,-66.5 h 204.2 l 78,66.5 c 11.1,9.5 17.6,23.4 17.6,38 V 792 Z"
         id="path2463" /><path
         class="st5"
         d="m 201.7,716.1 v 25.5 c 0,27.8 22.6,50.4 50.4,50.4 H 597 V 766.5 H 252.1 c -27.8,0 -50.4,-22.6 -50.4,-50.4 z"
         id="path2465" /><path
         class="st5"
         d="M 579.4,581.5 501.4,515 H 471 l 78,66.5 c 11.1,9.5 17.6,23.4 17.6,38 V 792 H 597 V 619.6 c 0,-14.7 -6.4,-28.6 -17.6,-38.1 z"
         id="path2467" /><polygon
         class="st6"
         points="399,586 469,536 329,536 "
         id="polygon2469" /><path
         class="st7"
         d="M 597,792 H 252.1 c -27.8,0 -50.4,-22.6 -50.4,-50.4 v -122 c 0,-14.6 6.4,-28.5 17.6,-38 l 78,-66.5 h 204.2 l 78,66.5 c 11.1,9.5 17.6,23.4 17.6,38 V 792 Z"
         id="path2471" /><rect
         x="326.29999"
         y="720.40002"
         class="st8"
         width="78.400002"
         height="71.599998"
         id="rect2473" /><rect
         x="326.29999"
         y="776.20001"
         class="st9"
         width="78.400002"
         height="15.8"
         id="rect2475" /><rect
         x="326.29999"
         y="720.40002"
         class="st7"
         width="78.400002"
         height="71.599998"
         id="rect2477" /><path
         class="st7"
         d="m 271,538 66,92 c 0,0 17,-52 62,-44 -65,-48 -70,-50 -70,-50"
         id="path2479" /><path
         class="st7"
         d="m 527.4,536.9 -66,92 c 0,0 -17,-52 -62,-44 65,-48 70,-50 70,-50"
         id="path2481" /><line
         class="st7"
         x1="399"
         y1="586"
         x2="399"
         y2="753.90002"
         id="line2483" /><circle
         class="st10"
         cx="423.5"
         cy="634.5"
         r="6.5"
         id="circle2485" /><circle
         class="st10"
         cx="423.5"
         cy="676.5"
         r="6.5"
         id="circle2487" /><g
         id="g2507">
	<g
   id="g2493">
		<path
   class="st11"
   d="M 652.8,793.6 H 390.2 c -10.1,0 -18.2,-8.2 -18.2,-18.2 v -3.3 c 0,-10.1 8.2,-18.2 18.2,-18.2 H 671 v 21.5 c 0,10.1 -8.2,18.2 -18.2,18.2 z"
   id="path2489" />
		<path
   class="st7"
   d="M 652.8,793.6 H 390.2 c -10.1,0 -18.2,-8.2 -18.2,-18.2 v -3.3 c 0,-10.1 8.2,-18.2 18.2,-18.2 H 671 v 21.5 c 0,10.1 -8.2,18.2 -18.2,18.2 z"
   id="path2491" />
	</g>
	<path
   class="st6"
   d="M 845.6,793.7 H 594.8 c -11.5,0 -20.1,-10.7 -17.6,-21.9 l 47.1,-210.4 c 3.9,-17.4 18.4,-29.7 35,-29.7 h 235.2 c 19.4,0 33.7,19.6 29.2,39.9 L 880.6,764 c -3.9,17.4 -18.4,29.7 -35,29.7 z"
   id="path2495" />
	<path
   class="st12"
   d="M 845.6,793.7 H 594.8 c -11.5,0 -20.1,-10.7 -17.6,-21.9 l 47.1,-210.4 c 3.9,-17.4 18.4,-29.7 35,-29.7 h 235.2 c 19.4,0 33.7,19.6 29.2,39.9 L 880.6,764 c -3.9,17.4 -18.4,29.7 -35,29.7 z"
   id="path2497" />
	<path
   class="st11"
   d="M 857.6,784.5 H 606.7 c -11.5,0 -20.1,-10.7 -17.6,-21.9 l 47.1,-210.4 c 1.5,-6.6 4.5,-12.5 8.6,-17.3 -10.1,4.8 -17.8,14.4 -20.5,26.4 l -47.1,210.4 c -2.5,11.2 6,21.9 17.6,21.9 h 250.8 c 10.3,0 19.8,-4.7 26.4,-12.4 -4.4,2.1 -9.3,3.3 -14.4,3.3 z"
   id="path2499" />
	<path
   class="st11"
   d="m 597.4,771.7 47.1,-210.4 c 3.9,-17.4 18.4,-29.7 35,-29.7 h -20.2 c -16.6,0 -31.1,12.3 -35,29.7 l -47.1,210.4 c -2.5,11.2 6,21.9 17.6,21.9 H 615 c -11.5,0.1 -20.1,-10.6 -17.6,-21.9 z"
   id="path2501" />
	<path
   class="st7"
   d="M 845.6,793.7 H 594.8 c -11.5,0 -20.1,-10.7 -17.6,-21.9 l 47.1,-210.4 c 3.9,-17.4 18.4,-29.7 35,-29.7 h 235.2 c 19.4,0 33.7,19.6 29.2,39.9 L 880.6,764 c -3.9,17.4 -18.4,29.7 -35,29.7 z"
   id="path2503" />
	<path
   class="st0"
   d="m 771.5,645.4 c 0.1,-1.6 0.5,-3.2 0.9,-4.7 -1.8,-0.5 -3.7,-0.7 -5.6,-0.6 -13.2,0.5 -26,12.8 -28.6,27.6 -2.6,14.8 6,26.4 19.2,26 12.6,-0.4 24.8,-11.7 28.2,-25.5 -9.1,-3.3 -15.1,-12.4 -14.1,-22.8 z"
   id="path2505" />
</g><g
         id="g2513">
	<path
   class="st8"
   d="M 451.5,732.7 H 466 c 5.9,0 10.6,4.8 10.6,10.6 v 0 c 0,5.9 -4.8,10.6 -10.6,10.6 h -31.4"
   id="path2509" />
	<path
   class="st7"
   d="m 447,732.7 h 19 c 5.9,0 10.6,4.8 10.6,10.6 v 0 c 0,5.9 -4.8,10.6 -10.6,10.6 h -31.4"
   id="path2511" />
</g><g
         id="g2519">
	<path
   class="st8"
   d="m 390,720.4 h 51.4 c 9.3,0 16.8,7.5 16.8,16.8 v 0 c 0,9.3 -7.5,16.8 -16.8,16.8 h -51.2"
   id="path2515" />
	<path
   class="st7"
   d="m 390,720.4 h 51.4 c 9.3,0 16.8,7.5 16.8,16.8 v 0 c 0,9.3 -7.5,16.8 -16.8,16.8 h -51.2"
   id="path2517" />
</g><path
         class="st7"
         d="m 400,732.7 h 21.6 c 5.9,0 10.6,4.8 10.6,10.6 v 0 c 0,5.9 -4.8,10.6 -10.6,10.6 h -31.4"
         id="path2521" /><polyline
         class="st7"
         points="284.8,704.5 326.3,704.5 326.3,792 "
         id="polyline2523" /><g
         id="g2585">
	<g
   id="g2555">
		<path
   class="st8"
   d="m 400.3,549 h -5.1 C 324.1,549 266.5,510.4 266.5,439.3 V 279.2 H 529 V 439.3 C 529,510.4 471.4,549 400.3,549 Z"
   id="path2525" />
		<path
   class="st9"
   d="m 267,312.9 c 0,0 23.2,40 86.9,42.3 97.4,3.4 135.9,-46.9 135.9,-46.9 z"
   id="path2527" />
		<path
   class="st9"
   d="m 400.3,531.7 h -5.1 C 324.1,531.7 266.5,497.1 266.5,426 v 13.3 c 0,71.1 57.6,109.7 128.7,109.7 h 5.1 C 471.4,549 529,510.4 529,439.3 V 426 c 0,71.1 -57.6,105.7 -128.7,105.7 z"
   id="path2529" />
		<path
   class="st7"
   d="m 400.3,549 h -5.1 C 324.1,549 266.5,510.4 266.5,439.3 V 279.2 H 529 V 439.3 C 529,510.4 471.4,549 400.3,549 Z"
   id="path2531" />
		<path
   class="st13"
   d="m 302,358 c -13,45 -35,35 -35,35 V 273 h 37 c 0,0 6.3,56.2 -2,85 z"
   id="path2533" />
		<path
   class="st14"
   d="m 304.8,344 c 1.3,-10 1.6,-21.4 1.5,-31.9 l -39.3,0.8 c 0,0 10.8,18.6 37.8,31.1 z"
   id="path2535" />
		<path
   class="st7"
   d="m 302,358 c -13,45 -35,35 -35,35 V 273 h 37 c 0,0 6.3,56.2 -2,85 z"
   id="path2537" />
		<g
   id="g2553">
			<path
   class="st13"
   d="m 496.6,213.3 c -19,-17.2 -47.3,-32.7 -86.8,-31.6 -0.5,7.8 5,24.7 15,33 -37.6,-35 -118.5,-35.3 -144.5,-9.1 3.8,12.1 14.5,27.6 31.1,35.6 -47.3,-10.9 -80.3,12.6 -83,21 8.3,20.7 27.1,42 38.6,50.7 38.8,29.1 145.9,40.4 212.3,1.9 3.8,-2.2 7.3,-4.4 10.5,-6.5 -0.4,16.9 0.3,36.3 4.2,49.8 13,45 35,35 35,35 V 287 c 0,-28 -11.6,-54.9 -32.4,-73.7 z"
   id="path2539" />
			<g
   id="g2547">
				<path
   class="st14"
   d="m 424.8,214.8 v 0 c -2.4,-3.4 -8.8,-6.2 -19.1,-13.3 -41.1,-21.3 -103.2,-18.3 -125.4,4.1 0.5,1.7 1.2,3.5 2,5.3 29.6,-19.1 92.9,-20.4 129.2,6.8 4.7,3.5 13.3,3 13.3,-2.9 z"
   id="path2541" />
				<path
   class="st14"
   d="m 311.8,242.8 c 0,-0.7 -0.2,-1.2 -0.4,-1.6 -1.9,-0.4 -8.8,-1.1 -23.4,-2.8 -34.5,-0.3 -57.4,16.9 -59.6,23.9 0.4,1.1 0.9,2.2 1.4,3.3 11.6,-9.3 39.8,-21.7 73.8,-15.6 4.4,0.7 8.5,-2.7 8.2,-7.2 z"
   id="path2543" />
				<path
   class="st14"
   d="m 496.6,213.3 c -19,-17.2 -47.3,-32.7 -86.8,-31.6 -0.2,2.8 0.4,6.7 1.7,11 28.3,0.6 52.9,10.8 67.3,25.6 28,28.8 11.4,71.4 -0.9,86.6 -14.9,18.4 -23.9,21.5 -23.9,21.5 0,0 29.7,-8.5 35.7,-18.2 -5,26.2 7.4,81.7 34.1,85.7 3.2,0 5.2,-0.9 5.2,-0.9 V 287 c 0,-28 -11.6,-54.9 -32.4,-73.7 z"
   id="path2545" />
			</g>
			<path
   class="st7"
   d="m 507.2,224 c -18.5,-20.9 -49.8,-43.7 -97.4,-42.3 -0.5,7.8 5,24.7 15,33 -37.6,-35 -118.5,-35.3 -144.5,-9.1 3.8,12.1 14.5,27.6 31.1,35.6 -47.3,-10.9 -80.3,12.6 -83,21 8.3,20.7 27.1,42 38.6,50.7 38.8,29.1 145.9,40.4 212.3,1.9 3.8,-2.2 7.3,-4.4 10.5,-6.5 -0.4,16.9 0.3,36.3 4.2,49.8 13,45 35,35 35,35 V 282 c 0,-21.3 -7.6,-42 -21.8,-58 z"
   id="path2549" />
			<path
   class="st7"
   d="m 509.3,289.8 c 0,0 -11.4,12.5 -19.6,18.5 -8.5,6.2 -21,13.9 -37.9,19"
   id="path2551" />
		</g>
	</g>
	<path
   class="st7"
   d="m 333.3,395.3 c 12.2,-2.1 24.8,-2.1 37,0"
   id="path2557" />
	<circle
   class="st10"
   cx="359.70001"
   cy="409.89999"
   r="9.1999998"
   id="circle2559" />
	<path
   class="st7"
   d="m 427.7,395.3 c 12.2,-2.1 24.8,-2.1 37,0"
   id="path2561" />
	<circle
   class="st10"
   cx="454"
   cy="409.89999"
   r="9.1999998"
   id="circle2563" />
	<path
   class="st7"
   d="m 382.8,448.4 c 3.3,5.7 9.5,9.5 16.6,9.5 7,0 13.2,-3.8 16.6,-9.5"
   id="path2565" />
	<g
   id="g2571">
		<path
   class="st0"
   d="m 434.2,481 c 0,15.2 -15.8,27.4 -35.2,27.4 -19.4,0 -35.2,-12.3 -35.2,-27.4 z"
   id="path2567" />
		<path
   class="st7"
   d="m 434.2,481 c 0,15.2 -15.8,27.4 -35.2,27.4 -19.4,0 -35.2,-12.3 -35.2,-27.4 z"
   id="path2569" />
	</g>
	<g
   id="g2577">
		<path
   class="st8"
   d="m 266.5,355.2 c 0,0 -23.4,-1.7 -23.4,22 0,25.3 5.9,40.9 23.4,41.5 z"
   id="path2573" />
		<path
   class="st7"
   d="m 266.5,355.2 c 0,0 -23.4,-1.7 -23.4,22 0,25.3 5.9,40.9 23.4,41.5 z"
   id="path2575" />
	</g>
	<g
   id="g2583">
		<path
   class="st8"
   d="m 529,355.2 c 0,0 23.4,-1.7 23.4,22 0,25.3 -5.9,40.9 -23.4,41.5 z"
   id="path2579" />
		<path
   class="st7"
   d="m 529,355.2 c 0,0 23.4,-1.7 23.4,22 0,25.3 -5.9,40.9 -23.4,41.5 z"
   id="path2581" />
	</g>
</g><g
         id="g2599">
	<path
   class="st15"
   d="m 874.2,344.6 h -137 c -11,0 -20,9 -20,20 V 439 c 0,11 9,20 20,20 H 783 l 22.8,28.4 22.8,-28.4 h 45.7 c 11,0 20,-9 20,-20 v -74.4 c -0.1,-11 -9,-20 -20.1,-20 z"
   id="path2587" />
	<path
   class="st7"
   d="m 874.2,344.6 h -137 c -11,0 -20,9 -20,20 V 439 c 0,11 9,20 20,20 H 783 l 22.8,28.4 22.8,-28.4 h 45.7 c 11,0 20,-9 20,-20 v -74.4 c -0.1,-11 -9,-20 -20.1,-20 z"
   id="path2589" />
	<g
   id="g2597">
		<circle
   class="st0"
   cx="769"
   cy="404.89999"
   r="9.6999998"
   id="circle2591" />
		<circle
   class="st0"
   cx="845.09998"
   cy="404.89999"
   r="9.6999998"
   id="circle2593" />
		<circle
   class="st0"
   cx="807.09998"
   cy="404.89999"
   r="9.6999998"
   id="circle2595" />
	</g>
</g></g></g><style
     type="text/css"
     id="style2137">
	.st0{fill:#FFFFFF;}
	.st1{fill:#E4E8EC;}
	.st2{fill:#606060;}
	.st3{fill:#FF901B;}
	.st4{fill:#00E7E9;}
	.st5{fill:#00D1C5;}
	.st6{fill:#FFF4E4;}
	.st7{fill:none;stroke:#171819;stroke-width:6;stroke-linecap:round;stroke-linejoin:round;stroke-miterlimit:10;}
	.st8{fill:#FFDEC5;}
	.st9{fill:#EFB58E;}
	.st10{fill:#171819;}
	.st11{fill:#B0AEFA;}
	.st12{fill:#DCDBFF;}
	.st13{fill:#FF9472;}
	.st14{fill:#EF7756;}
	.st15{fill:#FF4F7C;}
</style></svg>
