<?xml version="1.0" encoding="UTF-8" standalone="no"?>
<!-- Created with Inkscape (http://www.inkscape.org/) -->

<svg
   width="300"
   height="300"
   viewBox="0 0 79.374998 79.375"
   version="1.1"
   id="svg5037"
   inkscape:version="1.2.2 (732a01da63, 2022-12-09)"
   sodipodi:docname="testlogo.svg"
   xmlns:inkscape="http://www.inkscape.org/namespaces/inkscape"
   xmlns:sodipodi="http://sodipodi.sourceforge.net/DTD/sodipodi-0.dtd"
   xmlns="http://www.w3.org/2000/svg"
   xmlns:svg="http://www.w3.org/2000/svg">
  <sodipodi:namedview
     id="namedview5039"
     pagecolor="#ffffff"
     bordercolor="#000000"
     borderopacity="0.25"
     inkscape:showpageshadow="2"
     inkscape:pageopacity="0.0"
     inkscape:pagecheckerboard="0"
     inkscape:deskcolor="#d1d1d1"
     inkscape:document-units="px"
     showgrid="false"
     inkscape:zoom="1.7066667"
     inkscape:cx="139.74609"
     inkscape:cy="150"
     inkscape:window-width="1366"
     inkscape:window-height="715"
     inkscape:window-x="-8"
     inkscape:window-y="-8"
     inkscape:window-maximized="1"
     inkscape:current-layer="layer1" />
  <defs
     id="defs5034" />
  <g
     inkscape:label="Layer 1"
     inkscape:groupmode="layer"
     id="layer1">
    <path
       style="display:inline;fill:none;stroke:#64ffda;stroke-width:1.05833332;stroke-dasharray:none;stroke-opacity:1"
       d="m 52.221859,24.913731 c 3.33431,-2.61077 7.62508,-5.50294 6.17671,-8.23561 -1.83586,-3.46376 -21.20056,6.38797 -22.07997,12.92139 -0.23317,1.73233 0.0403,2.50049 15.76125,1.56193 5.74524,-0.343 16.96488,-1.56229 16.61324,2.27189 -0.33087,3.6077 -12.56824,10.73529 -26.41077,19.59509 -12.37519,7.92063 -35.186851,23.63369 -36.918281,21.15701 -2.24386,-3.20967 19.016561,-21.85885 34.504391,-32.51648 -5.29649,5.43251 -12.69442,12.89523 -9.37156,12.49541 6.7278,-0.80952 30.24881,-14.75498 26.55276,-19.59508 -1.99045,-2.60656 -8.79042,-0.91626 -13.77336,-0.85196 -11.78234,1.22092 -11.30455,-4.02522 -6.38969,-10.6495 8.62631,-11.6266 31.20402,-20.9742897 36.49228,-17.3231997 4.38859,4.4232397 -10.32075,15.3927197 -21.157,19.1691097 z"
       id="path885"
       sodipodi:nodetypes="csssssscsscscc" />
  </g>
</svg>
