<?xml version="1.0" encoding="UTF-8" standalone="no"?>
<!-- Created with Inkscape (http://www.inkscape.org/) -->

<svg
   width="210mm"
   height="210mm"
   viewBox="0 0 210 210"
   version="1.1"
   id="svg5"
   xml:space="preserve"
   xmlns="http://www.w3.org/2000/svg"
   xmlns:svg="http://www.w3.org/2000/svg"><defs
     id="defs2" /><g
     id="layer1"><g
       id="g278"
       transform="matrix(1.1342541,0,0,1.1342541,-121.85082,-65.128871)"><path
         d="m 220.28,162.2 h 17.42 a 30.7,30.7 0 0 1 29.3,21.7 l 9.41,30.69 a 7.33,7.33 0 0 1 -7,9.49 h -80.9 a 7.33,7.33 0 0 1 -7,-9.49 l 9.41,-30.69 a 30.7,30.7 0 0 1 29.36,-21.7 z"
         fill="#68e1fd"
         id="path132" /><path
         d="m 269.44,225.08 h -80.9 a 8.34,8.34 0 0 1 -8,-10.78 L 190,183.61 a 31.54,31.54 0 0 1 30.3,-22.41 h 17.4 a 31.54,31.54 0 0 1 30.3,22.41 l 9.41,30.69 a 8.34,8.34 0 0 1 -8,10.78 z M 220.28,163.2 a 29.55,29.55 0 0 0 -28.39,21 l -9.41,30.69 a 6.35,6.35 0 0 0 6.06,8.2 h 80.9 a 6.35,6.35 0 0 0 6.06,-8.2 l -9.41,-30.69 a 29.55,29.55 0 0 0 -28.39,-21 z"
         fill="#093f68"
         id="path134" /><path
         d="m 223.67,158.74 h 10.64 v 6.12 a 4.52,4.52 0 0 1 -4.52,4.52 h -1.61 a 4.52,4.52 0 0 1 -4.52,-4.52 v -6.12 z"
         fill="#ffc9b0"
         id="path136" /><path
         d="m 229.79,170.37 h -1.6 a 5.52,5.52 0 0 1 -5.52,-5.51 v -6.12 a 1,1 0 0 1 1,-1 h 10.64 a 1,1 0 0 1 1,1 v 6.12 a 5.52,5.52 0 0 1 -5.52,5.51 z m -5.12,-10.63 v 5.12 a 3.52,3.52 0 0 0 3.52,3.51 h 1.6 a 3.52,3.52 0 0 0 3.52,-3.51 v -5.12 z"
         fill="#093f68"
         id="path138" /><path
         d="m 192.27,129.23 c -4.94,-1.87 -4.64,-5.65 -5.38,-10.49 a 123.35,123.35 0 0 1 -1.37,-14.48 c -0.19,-5.51 0,-11.17 2.1,-16.28 2.69,-6.57 8,-10.81 15.09,-10.23 -0.21,-9.68 5.6,-18.76 15.89,-19.31 16.49,-0.88 26,16.83 35.21,15.51 9.21,-1.32 11.68,-5.42 11.68,-5.42 a 16.92,16.92 0 0 1 -2,18.67 c 0,0 7.27,-2.12 8.15,7.55 0.88,9.67 -4.91,35.37 -4.91,35.37 L 260.16,129 c -2.77,-0.49 -6.23,0.19 -9,0.28 l -20.61,0.64 c -10.34,0.29 -27.06,3.55 -38.28,-0.69 z"
         fill="#725858"
         id="path140" /><path
         d="m 207.13,132.38 c -5.42,0 -10.75,-0.53 -15.22,-2.22 v 0 c -4.79,-1.82 -5.23,-5.28 -5.74,-9.29 q -0.12,-1 -0.27,-2 a 125,125 0 0 1 -1.38,-14.6 c -0.18,-5.17 -0.06,-11.21 2.18,-16.68 2.85,-7 8.17,-10.91 14.7,-10.91 h 0.31 c 0.22,-9.31 5.93,-18.68 16.84,-19.26 9.59,-0.5 17,5.09 22.92,9.58 4.58,3.47 8.54,6.46 12.19,5.94 8.55,-1.22 11,-4.91 11,-4.95 a 1,1 0 0 1 0.86,-0.47 1,1 0 0 1 0.86,0.49 c 0.05,0.09 5.06,8.92 -0.76,18 a 6.83,6.83 0 0 1 3.48,1.14 c 2,1.4 3.25,3.92 3.57,7.51 0.89,9.72 -4.68,34.62 -4.92,35.68 a 1,1 0 0 1 -1.15,0.76 L 260,130 a 23.69,23.69 0 0 0 -5.87,0.08 c -1,0.1 -2,0.19 -3,0.22 l -20.61,0.64 c -2.57,0.08 -5.59,0.35 -8.78,0.63 -4.51,0.36 -9.6,0.81 -14.61,0.81 z m -14.51,-4.09 c 8.18,3.1 19.71,2.07 29,1.24 3.22,-0.29 6.27,-0.56 8.9,-0.64 l 20.61,-0.64 c 0.87,0 1.82,-0.12 2.82,-0.21 a 25,25 0 0 1 6.4,-0.06 v 0 c 0.35,0 1.49,0.25 5.65,1 1,-4.68 5.44,-25.75 4.68,-34.13 -0.27,-3 -1.17,-5 -2.69,-6 a 5.46,5.46 0 0 0 -4.18,-0.66 1,1 0 0 1 -1.11,-0.41 1,1 0 0 1 0.06,-1.18 15.72,15.72 0 0 0 2.5,-16.24 c -1.53,1.44 -4.86,3.69 -11.29,4.61 -4.48,0.63 -8.75,-2.59 -13.69,-6.32 -6,-4.53 -12.75,-9.65 -21.6,-9.18 -10.06,0.53 -15.14,9.61 -14.95,18.29 a 1,1 0 0 1 -0.32,0.75 1,1 0 0 1 -0.77,0.27 c -6.24,-0.52 -11.37,3 -14.07,9.61 -2.09,5.13 -2.2,10.9 -2,15.86 a 123,123 0 0 0 1.35,14.36 c 0.11,0.71 0.2,1.38 0.28,2 0.48,3.78 0.8,6.28 4.47,7.67 z"
         fill="#093f68"
         id="path142" /><ellipse
         cx="198.59"
         cy="131.11"
         rx="10.33"
         ry="8.8999996"
         fill="#ffc9b0"
         id="ellipse144" /><path
         d="m 198.59,141 c -6.25,0 -11.33,-4.44 -11.33,-9.9 0,-5.46 5.08,-9.91 11.33,-9.91 6.25,0 11.34,4.45 11.34,9.91 0,5.46 -5.09,9.9 -11.34,9.9 z m 0,-17.81 c -5.14,0 -9.33,3.55 -9.33,7.91 0,4.36 4.19,7.9 9.33,7.9 5.14,0 9.34,-3.54 9.34,-7.9 0,-4.36 -4.19,-7.9 -9.34,-7.9 z"
         fill="#093f68"
         id="path146" /><ellipse
         cx="258.84"
         cy="131.11"
         rx="10.33"
         ry="8.8999996"
         fill="#ffc9b0"
         id="ellipse148" /><path
         d="m 258.84,141 c -6.25,0 -11.34,-4.44 -11.34,-9.9 0,-5.46 5.09,-9.91 11.34,-9.91 6.25,0 11.33,4.45 11.33,9.91 0,5.46 -5.08,9.9 -11.33,9.9 z m 0,-17.81 c -5.15,0 -9.34,3.55 -9.34,7.91 0,4.36 4.19,7.9 9.34,7.9 5.15,0 9.33,-3.54 9.33,-7.9 0,-4.36 -4.17,-7.9 -9.33,-7.9 z"
         fill="#093f68"
         id="path150" /><path
         d="m 229,160.13 v 0 A 31.17,31.17 0 0 1 197.82,129 v -22.66 c 1.82,3 7.87,1.8 16.74,-13.41 33.2,16.82 45.6,7.18 45.6,7.18 V 129 A 31.17,31.17 0 0 1 229,160.13 Z"
         fill="#ffc9b0"
         id="path152" /><path
         d="M 229,161.13 A 32.2,32.2 0 0 1 196.82,129 v -22.66 a 1,1 0 0 1 1.86,-0.52 1.66,1.66 0 0 0 1.53,0.83 v 0 c 1.22,0 5.8,-1.07 13.47,-14.23 A 1,1 0 0 1 215,92 c 32.08,16.25 44.42,7.37 44.54,7.28 a 1,1 0 0 1 1.61,0.8 V 129 A 32.2,32.2 0 0 1 229,161.13 Z M 198.83,108.41 V 129 a 30.17,30.17 0 0 0 60.34,0 v -27.17 c -4.32,2 -17.59,5.68 -44.21,-7.59 -5.52,9.27 -10.73,14.38 -14.7,14.41 a 3.44,3.44 0 0 1 -1.44,-0.24 z"
         fill="#093f68"
         id="path154" /><path
         d="m 249,216.72 a 1,1 0 0 1 -1,-1 v -36.58 a 1,1 0 0 1 2,0 v 36.58 a 1,1 0 0 1 -1,1 z"
         fill="#093f68"
         id="path156" /><path
         d="m 209,216.72 a 1,1 0 0 1 -1,-1 v -36.58 a 1,1 0 0 1 2,0 v 36.58 a 1,1 0 0 1 -1,1 z"
         fill="#093f68"
         id="path158" /><path
         d="m 228.92,134.69 a 20.75,20.75 0 0 1 -3.13,-0.26 1.015197,1.015197 0 0 1 0.35,-2 15.28,15.28 0 0 0 4.75,0 c 0.2,-0.92 -1,-4.35 -2.7,-7.58 A 1,1 0 1 1 230,124 c 1.12,2.15 3.63,7.37 2.71,9.42 a 1.72,1.72 0 0 1 -1.16,1 10.74,10.74 0 0 1 -2.63,0.27 z"
         fill="#093f68"
         id="path160" /><path
         d="m 222,110.73 v 0 h -15.28 a 2,2 0 1 1 0,-4 v 0 h 15.29 a 2,2 0 0 1 0,4 z"
         fill="#093f68"
         id="path162" /><path
         d="m 250.25,110.73 v 0 h -15.28 a 2,2 0 1 1 0,-4 v 0 h 15.28 a 2,2 0 0 1 0,4 z"
         fill="#093f68"
         id="path164" /><path
         d="m 205.39,116.21 h 18 a 2.56,2.56 0 0 1 2.56,2.56 v 1.67 a 8.63,8.63 0 0 1 -8.63,8.63 h -5.87 a 8.63,8.63 0 0 1 -8.63,-8.63 v -1.67 a 2.56,2.56 0 0 1 2.57,-2.56 z"
         fill="#ffffff"
         id="path166" /><path
         d="m 217.33,130.08 h -5.86 a 9.64,9.64 0 0 1 -9.63,-9.63 v -1.68 a 3.56,3.56 0 0 1 3.55,-3.56 h 18 a 3.57,3.57 0 0 1 3.56,3.56 v 1.68 a 9.64,9.64 0 0 1 -9.62,9.63 z m -11.94,-12.87 a 1.55,1.55 0 0 0 -1.55,1.56 v 1.68 a 7.64,7.64 0 0 0 7.63,7.63 h 5.86 a 7.65,7.65 0 0 0 7.64,-7.63 v -1.68 a 1.56,1.56 0 0 0 -1.56,-1.56 z"
         fill="#093f68"
         id="path168" /><path
         d="m 234.45,116.21 h 18 a 2.56,2.56 0 0 1 2.56,2.56 v 1.67 a 8.63,8.63 0 0 1 -8.63,8.63 h -5.87 a 8.63,8.63 0 0 1 -8.63,-8.63 v -1.67 a 2.56,2.56 0 0 1 2.57,-2.56 z"
         fill="#ffffff"
         id="path170" /><path
         d="m 246.39,130.08 h -5.86 a 9.64,9.64 0 0 1 -9.64,-9.63 v -1.68 a 3.57,3.57 0 0 1 3.56,-3.56 h 18 a 3.56,3.56 0 0 1 3.55,3.56 v 1.68 a 9.64,9.64 0 0 1 -9.61,9.63 z m -11.94,-12.87 a 1.56,1.56 0 0 0 -1.56,1.56 v 1.68 a 7.65,7.65 0 0 0 7.64,7.63 h 5.86 a 7.64,7.64 0 0 0 7.63,-7.63 v -1.68 a 1.55,1.55 0 0 0 -1.55,-1.56 z"
         fill="#093f68"
         id="path172" /><path
         d="M 202.84,121.45 H 197 a 1,1 0 0 1 0,-2 h 5.81 a 1,1 0 0 1 0,2 z"
         fill="#093f68"
         id="path174" /><path
         d="m 261.12,121.45 h -5.8 a 1,1 0 0 1 0,-2 h 5.8 a 1,1 0 0 1 0,2 z"
         fill="#093f68"
         id="path176" /><path
         d="M 231.89,121.45 H 226 a 1,1 0 0 1 0,-2 h 5.92 a 1,1 0 0 1 0,2 z"
         fill="#093f68"
         id="path178" /><path
         d="m 228.33,144.33 a 28.87,28.87 0 0 1 -10.44,-1.91 1.0019107,1.0019107 0 0 1 0.72,-1.87 29.23,29.23 0 0 0 19.77,0 1.0019232,1.0019232 0 0 1 0.77,1.85 30.56,30.56 0 0 1 -10.82,1.93 z"
         fill="#093f68"
         id="path180" /><path
         d="m 256.41,208.32 a 1,1 0 0 1 -1,-0.8 1,1 0 0 1 0.78,-1.18 l 11.06,-2.26 a 1.0198039,1.0198039 0 0 1 0.4,2 l -11.06,2.25 a 0.64,0.64 0 0 1 -0.18,-0.01 z"
         fill="#093f68"
         id="path182" /><path
         d="m 201.57,208.32 a 0.64,0.64 0 0 1 -0.2,0 L 190.31,206 a 1.0198039,1.0198039 0 1 1 0.4,-2 l 11.06,2.26 a 1,1 0 0 1 0.78,1.18 1,1 0 0 1 -0.98,0.88 z"
         fill="#093f68"
         id="path184" /><path
         d="m 200.76,187.36 h 56.34 a 4.78,4.78 0 0 1 4.78,4.78 V 225 H 196 v -32.86 a 4.78,4.78 0 0 1 4.76,-4.78 z"
         fill="#f56132"
         id="path186" /><path
         d="M 261.88,226 H 196 a 1,1 0 0 1 -1,-1 v -32.86 a 5.78,5.78 0 0 1 5.78,-5.78 h 56.32 a 5.78,5.78 0 0 1 5.78,5.78 V 225 a 1,1 0 0 1 -1,1 z M 197,224 h 63.9 v -31.86 a 3.79,3.79 0 0 0 -3.78,-3.78 h -56.36 a 3.79,3.79 0 0 0 -3.78,3.78 z"
         fill="#093f68"
         id="path188" /><path
         d="m 192.78,225 h 72.31 v 0 a 4.82,4.82 0 0 1 -4.82,4.82 H 197.6 A 4.82,4.82 0 0 1 192.78,225 Z"
         fill="#f56132"
         id="path190" /><path
         d="M 260.26,230.84 H 197.6 a 5.83,5.83 0 0 1 -5.82,-5.82 1,1 0 0 1 1,-1 h 72.3 a 1,1 0 0 1 1,1 5.83,5.83 0 0 1 -5.82,5.82 z M 193.91,226 a 3.83,3.83 0 0 0 3.69,2.82 h 62.66 A 3.83,3.83 0 0 0 264,226 Z"
         fill="#093f68"
         id="path192" /><path
         d="m 228.19,188.36 a 1,1 0 0 1 -1,-1 v -18 a 1,1 0 0 1 2,0 v 18 a 1,1 0 0 1 -1,1 z"
         fill="#093f68"
         id="path194" /><path
         d="m 133.36,200.91 h 28 v 19.74 a 9.19,9.19 0 0 1 -9.19,9.19 h -9.62 a 9.19,9.19 0 0 1 -9.19,-9.19 z"
         fill="#ffbc0e"
         id="path196" /><path
         d="m 152.17,230.84 h -9.62 a 10.2,10.2 0 0 1 -10.19,-10.19 v -19.74 a 1,1 0 0 1 1,-1 h 28 a 1,1 0 0 1 1,1 v 19.74 a 10.2,10.2 0 0 1 -10.19,10.19 z m -17.81,-28.93 v 18.74 a 8.19,8.19 0 0 0 8.19,8.19 h 9.62 a 8.2,8.2 0 0 0 8.19,-8.19 v -18.74 z"
         fill="#093f68"
         id="path198" /><rect
         x="110.51"
         y="229.84"
         width="178.98"
         height="11.75"
         rx="5.8800001"
         fill="#725858"
         id="rect200" /><path
         d="M 283.61,242.59 H 116.39 a 6.88,6.88 0 1 1 0,-13.75 h 167.22 a 6.88,6.88 0 1 1 0,13.75 z M 116.39,230.84 a 4.88,4.88 0 1 0 0,9.75 h 167.22 a 4.88,4.88 0 1 0 0,-9.75 z"
         fill="#093f68"
         id="path202" /><path
         d="m 163,221 h -1.63 a 1,1 0 0 1 -1,-1 v -15.87 a 1,1 0 0 1 1,-1 H 163 a 9,9 0 1 1 0,17.87 z m -0.63,-2 H 163 a 7,7 0 1 0 0,-13.91 h -0.63 z"
         fill="#093f68"
         id="path204" /><rect
         x="113.22"
         y="112.98"
         width="64.279999"
         height="54.07"
         rx="2.5"
         fill="#ffffff"
         id="rect206" /><path
         d="m 175,168.05 h -59.29 a 3.5,3.5 0 0 1 -3.49,-3.5 v -49.08 a 3.49,3.49 0 0 1 3.49,-3.49 H 175 a 3.5,3.5 0 0 1 3.5,3.49 v 49.08 a 3.5,3.5 0 0 1 -3.5,3.5 z M 115.71,114 a 1.49,1.49 0 0 0 -1.49,1.49 v 49.08 a 1.5,1.5 0 0 0 1.49,1.5 H 175 a 1.5,1.5 0 0 0 1.5,-1.5 v -49.1 A 1.5,1.5 0 0 0 175,114 Z"
         fill="#093f68"
         id="path208" /><path
         d="M 115.71,113 H 175 a 2.5,2.5 0 0 1 2.5,2.5 v 4.33 h -64.28 v -4.33 a 2.5,2.5 0 0 1 2.49,-2.5 z"
         fill="#68e1fd"
         id="path210" /><path
         d="m 177.5,120.81 h -64.28 a 1,1 0 0 1 -1,-1 v -4.34 a 3.49,3.49 0 0 1 3.49,-3.49 H 175 a 3.5,3.5 0 0 1 3.5,3.49 v 4.34 a 1,1 0 0 1 -1,1 z m -63.28,-2 h 62.28 v -3.34 A 1.5,1.5 0 0 0 175,114 h -59.29 a 1.49,1.49 0 0 0 -1.49,1.49 z"
         fill="#093f68"
         id="path212" /><circle
         cx="118.21"
         cy="116.39"
         r="1.34"
         fill="#093f68"
         id="circle214" /><circle
         cx="121.96"
         cy="116.39"
         r="1.34"
         fill="#093f68"
         id="circle216" /><circle
         cx="125.72"
         cy="116.39"
         r="1.34"
         fill="#093f68"
         id="circle218" /><path
         d="m 137.09,138.65 -9.25,4.22 v 0.07 l 9.25,4.22 v 4.62 l -14.77,-6.73 v -4.29 L 137.09,134 Z"
         fill="#093f68"
         id="path220" /><path
         d="m 148.06,127.33 3.32,1.19 -8.75,26.48 -3.3,-1.19 z"
         fill="#093f68"
         id="path222" /><path
         d="m 153.63,147.16 9.25,-4.22 v -0.07 l -9.25,-4.22 V 134 l 14.76,6.73 v 4.29 l -14.76,6.73 z"
         fill="#093f68"
         id="path224" /></g></g></svg>
